HIERARCHY
ROOT Hips
{
  OFFSET -102.467 93.6631 130.069
  CHANNELS 6 Xposition Yposition Zposition Zrotation Xrotation Yrotation
  JOINT LeftUpLeg
  {
    OFFSET 8.64259 1.95398 -2.38835
    CHANNELS 3 Zrotation Xrotation Yrotation
    JOINT LeftLeg
    {
      OFFSET 43.7702 0 0
      CHANNELS 3 Zrotation Xrotation Yrotation
      JOINT LeftFoot
      {
        OFFSET 40.6238 0 0
        CHANNELS 3 Zrotation Xrotation Yrotation
        JOINT LeftToeBase
        {
          OFFSET 12.7242 0 0
          CHANNELS 3 Zrotation Xrotation Yrotation
          End Site
          {
            OFFSET 0 0 0
          }
        }
      }
    }
  }
  JOINT RightUpLeg
  {
    OFFSET -8.2249 1.95398 -2.59336
    CHANNELS 3 Zrotation Xrotation Yrotation
    JOINT RightLeg
    {
      OFFSET 43.5653 0 0
      CHANNELS 3 Zrotation Xrotation Yrotation
      JOINT RightFoot
      {
        OFFSET 40.6238 0 0
        CHANNELS 3 Zrotation Xrotation Yrotation
        JOINT RightToeBase
        {
          OFFSET 12.7242 0 0
          CHANNELS 3 Zrotation Xrotation Yrotation
          End Site
          {
            OFFSET 0 0 0
          }
        }
      }
    }
  }
  JOINT Spine
  {
    OFFSET 0.165834 0.87714 6.61349
    CHANNELS 3 Zrotation Xrotation Yrotation
    JOINT Spine1
    {
      OFFSET 7.38963 1.71661e-005 0
      CHANNELS 3 Zrotation Xrotation Yrotation
      JOINT Spine2
      {
        OFFSET 11.9445 1.14441e-005 0
        CHANNELS 3 Zrotation Xrotation Yrotation
        JOINT Spine3
        {
          OFFSET 14.7254 4.19617e-005 0
          CHANNELS 3 Zrotation Xrotation Yrotation
          JOINT Spine4
          {
            OFFSET 10.9679 0 0
            CHANNELS 3 Zrotation Xrotation Yrotation
            JOINT RightShoulder
            {
              OFFSET 2.46616 -1.6653 3.69651
              CHANNELS 3 Zrotation Xrotation Yrotation
              JOINT RightArm
              {
                OFFSET 13.0012 0 0
                CHANNELS 3 Zrotation Xrotation Yrotation
                JOINT RightForeArm
                {
                  OFFSET 28.7848 1.52588e-005 0
                  CHANNELS 3 Zrotation Xrotation Yrotation
                  JOINT RightHand
                  {
                    OFFSET 26.5688 1.52588e-005 0
                    CHANNELS 3 Zrotation Xrotation Yrotation
                    End Site
                    {
                      OFFSET 0 0 0
                    }
                  }
                }
              }
            }
            JOINT LeftShoulder
            {
              OFFSET 2.38034 -1.29275 -3.7523
              CHANNELS 3 Zrotation Xrotation Yrotation
              JOINT LeftArm
              {
                OFFSET 16.3182 6.10351e-005 0
                CHANNELS 3 Zrotation Xrotation Yrotation
                JOINT LeftForeArm
                {
                  OFFSET 27.0901 0 0
                  CHANNELS 3 Zrotation Xrotation Yrotation
                  JOINT LeftHand
                  {
                    OFFSET 24.5451 1.52588e-005 0
                    CHANNELS 3 Zrotation Xrotation Yrotation
                    End Site
                    {
                      OFFSET 0 0 0
                    }
                  }
                }
              }
            }
            JOINT Neck
            {
              OFFSET 5.0226 -0.0266342 0
              CHANNELS 3 Zrotation Xrotation Yrotation
              JOINT Head
              {
                OFFSET 6.69363 2.86102e-005 0
                CHANNELS 3 Zrotation Xrotation Yrotation
                End Site
                {
                  OFFSET 0 0 0
                }
              }
            }
          }
        }
      }
    }
  }
}
MOTION
Frames:	9
Frame Time:	0.0416667
95.655 82.7732 98.2235 -70.224 25.1983 -109.37 -178.853 21.2819 84.3088 -55.6502 30.5366 2.42282 67.7108 14.6123 20.1536 77.7747 2.25166 15.7229 -161.452 68.6678 71.4097 -128.926 -19.48 -3.65248 45.6746 8.9368 4.49311 38.99 -2.77218 -2.28527 -1.18898 9.89644 -89.6238 7.08161 -2.21284 0.855577 -4.58798 -2.17301 0.952161 -27.1368 -2.36773 0.150625 -7.12414 -2.36771 0.150635 100.701 -49.5516 -84.4616 35.6609 -10.794 30.07 -6.87661 -0.0190266 -48.1262 -10.4503 -0.207024 -3.39264 -87.2251 -37.0768 80.171 -4.79687 -17.3577 -60.804 1.49785 -3.01025 -71.2101 9.21323 -0.856872 -11.9213 24.4647 -1.71802 -0.622417 -14.3178 -1.84759 4.6765 
81.6524 86.523 87.807 -71.4841 24.9614 -96.795 179.661 4.94187 97.1267 -42.17 31.359 10.7634 54.7941 -0.55443 3.98722 81.8877 -2.32857 7.68617 155.946 72.881 108.077 -100.03 -12.7029 -2.7349 55.6914 3.60572 3.38471 62.8488 -9.29131 -1.10283 -1.19885 10.1479 -91.3206 6.53877 -2.95627 -2.49126 -5.13095 -3.06304 -2.35874 -27.662 -2.07133 -3.26417 -7.6494 -2.07131 -3.26416 95.8436 -44.9368 -92.6739 38.6577 -4.40798 44.5882 7.8835 12.0438 -50.9726 -8.67011 0.089955 -6.75913 -85.5013 -36.8979 83.1649 -6.49097 -12.9669 -49.5976 10.4439 -3.8797 -87.9371 10.8665 -0.741973 -9.97893 26.722 1.35071 0.23344 -18.4102 0.0973929 8.70201 
67.092 89.3226 74.9982 -72.442 35.1445 -100.942 -177.996 -1.30984 91.3228 -43.9017 22.883 5.30256 36.511 -11.4885 -2.93693 47.4748 -1.95155 1.54473 165.118 59.6721 96.5158 -68.8596 -17.1124 3.26708 55.7415 5.04013 5.27557 76.3556 -5.65551 10.6998 -0.654033 10.5558 -90.7618 5.74733 -1.62503 -1.45847 -5.92327 -1.68766 -1.38555 -28.4566 -1.11165 -1.87937 -8.44395 -1.11165 -1.87936 94.811 -48.835 -93.7987 31.5946 -8.94806 29.4207 16.1224 18.6559 -49.9712 -9.78318 0.322828 -9.52794 -87.3865 -44.4451 81.4114 2.63917 11.2279 -34.5529 5.34176 -1.75656 -59.2181 3.01478 -0.349145 -9.82156 28.9108 1.47903 -3.48248 -20.5641 0.805618 13.4874 
52.3575 88.6758 62.378 -71.6502 41.4164 -100.975 -177.122 16.8953 88.8361 -83.0803 11.6172 2.75411 42.2038 -5.4879 10.0333 52.2376 -2.00173 2.83582 162.298 41.1851 96.3093 -59.7433 -17.3317 8.53621 59.2702 2.39362 2.49888 62.3226 -5.21138 7.04138 -0.16482 10.5706 -90.8071 5.72408 -0.666454 -1.56796 -5.94764 -0.734826 -1.53713 -28.4745 -0.164498 -1.6957 -8.46189 -0.164507 -1.69572 96.6798 -52.8355 -90.4336 20.4879 -13.279 0.428141 16.7008 18.2599 -53.0618 -6.9763 0.205287 -9.3192 -90.898 -55.8727 78.3678 3.5954 18.2433 -23.7225 -4.1187 21.3041 -16.8576 5.31443 -0.39859 -9.08543 33.5394 3.08946 -1.42153 -25.7427 1.45601 10.8557 
39.3867 87.193 50.1566 -67.6584 55.0054 -98.1245 -174.27 44.3308 90.7442 -107.851 8.96948 2.92392 48.5407 1.65219 17.7773 52.5733 -1.47652 4.83838 170.505 25.7894 97.7577 -56.2274 -19.8177 6.08643 66.2022 2.1603 8.77261 61.8057 -0.0671721 17.1621 1.04365 10.2391 -90.9186 6.40245 1.69542 -1.86702 -5.26894 1.61159 -1.93982 -27.8063 2.17807 -1.27119 -7.79367 2.17805 -1.27121 97.169 -48.1039 -90.1739 18.0406 -12.5839 -31.2577 9.08445 9.47812 -64.9065 -7.11714 0.165517 -8.48615 -90.0325 -60.051 80.4228 -4.8842 22.35 8.58358 -5.35173 24.6665 -15.3265 5.70316 -0.182156 -5.59876 30.6264 3.84491 -4.54722 -24.8415 3.02726 13.7447 
25.9023 87.1453 36.3905 -62.8756 57.987 -106.364 -176.619 65.8085 87.2052 -97.5109 5.73113 2.98221 53.6219 4.83704 20.6683 59.2754 -0.999126 7.74623 175.166 7.66879 90.6016 -40.1196 -19.7378 0.947829 68.2138 3.12474 14.033 61.7571 -1.00912 15.2395 1.72535 9.71888 -90.1993 7.44506 3.35906 -0.55688 -4.22174 3.33127 -0.70434 -26.7915 3.37095 0.479581 -6.77884 3.37096 0.479579 99.7605 -35.6505 -86.7083 19.4291 -8.93859 -47.4699 -2.01657 5.6652 -85.7808 -6.73684 0.0895824 -7.28124 -91.842 -47.5365 75.0987 -24.3821 23.1475 32.5431 -3.102 19.5253 -21.8624 3.84258 -0.291351 -8.06778 20.0158 -0.172608 -7.97129 -17.5609 0.695122 13.8346 
10.8149 88.7552 21.0282 -68.408 50.869 -102.788 -171.495 64.8899 80.8146 -70.3038 9.76012 0.0473211 56.0957 3.09668 14.4013 65.4611 -0.750286 9.17438 177.336 -12.3063 90.7677 -18.4235 -14.691 -1.48781 30.2259 16.8246 28.6022 27.6302 3.69699 17.7093 1.28761 9.65673 -90.0656 7.57288 2.54258 -0.262385 -4.09569 2.52857 -0.374112 -26.6505 2.50387 0.514374 -6.63784 2.50389 0.514372 101.182 -36.3941 -83.9675 12.4486 -18.3432 -39.9581 -8.73625 9.68565 -94.6042 -5.05883 0.100015 -8.44568 -93.2149 -45.3759 72.3592 -21.3773 22.1669 24.4939 -5.23118 9.5997 -20.7744 5.20117 -0.445406 -9.74959 12.0097 -2.36767 -12.7905 -12.2431 -0.302041 15.7809 
-4.77811 88.7477 4.99077 -77.1364 44.1002 -93.8975 -164.091 47.6029 79.8311 -60.9297 17.1754 -5.0273 55.7933 3.40131 17.3979 62.6502 -1.21236 7.12442 176.32 -0.128572 90.043 -67.115 -25.067 -1.3112 35.0952 16.2633 13.858 6.11919 4.87567 3.20547 0.493733 10.145 -90.3322 6.58668 0.844043 -0.671296 -5.08401 0.813653 -0.707801 -27.6219 1.00674 -0.386574 -7.60922 1.00673 -0.386589 99.0399 -46.403 -87.2589 12.3514 -27.5814 -21.2787 -10.5837 10.577 -73.5908 -4.89204 0.109247 -8.80722 -91.5788 -53.35 76.8769 -1.7708 23.5829 -3.75174 -6.35511 -1.24459 -31.2647 6.43929 -0.5997 -10.9292 14.7781 -2.74464 -17.8221 -14.1188 0.499 18.3279 
-20.046 86.7551 -10.8278 -82.2686 33.3202 -96.7678 -168.216 23.9132 77.0531 -56.5543 23.252 -5.46611 62.7915 15.2614 29.9143 64.0917 -0.295424 9.88146 172.306 27.5626 89.6417 -106.767 -20.0401 -3.04492 38.3472 12.3176 4.35666 19.6454 1.30548 -8.70115 -0.538297 10.086 -89.6998 6.70038 -0.946697 0.621195 -4.97044 -0.918452 0.662243 -27.5072 -1.08958 0.307933 -7.49454 -1.0896 0.307926 100.187 -54.0297 -85.1212 23.4322 -20.0585 4.42278 -9.02137 -0.347884 -51.3517 -9.24869 0.0174302 -5.75279 -90.2092 -53.4424 78.8882 9.47226 16.238 -36.4389 -6.3877 -5.82954 -45.0108 7.10621 -0.79953 -12.908 16.3884 -3.30456 -12.1682 -16.1988 -0.647849 8.65611 
